<svg width="38" height="38" viewBox="0 0 38 38" fill="none" xmlns="http://www.w3.org/2000/svg">
<path d="M16.9167 29.4167C16.9167 30.5625 17.8542 31.5 19 31.5C20.1458 31.5 21.0833 30.5625 21.0833 29.4167C21.0833 28.2708 20.1458 27.3333 19 27.3333C17.8542 27.3333 16.9167 28.2708 16.9167 29.4167ZM16.9167 0.25V8.58333H21.0833V4.58333C28.1458 5.60417 33.5833 11.6458 33.5833 19C33.5833 27.0625 27.0625 33.5833 19 33.5833C10.9375 33.5833 4.41667 27.0625 4.41667 19C4.41667 15.5 5.64583 12.2917 7.70833 9.79167L19 21.0833L21.9375 18.1458L7.77083 3.97917V4.02083C3.20833 7.4375 0.25 12.8542 0.25 19C0.25 29.3542 8.625 37.75 19 37.75C29.3542 37.75 37.75 29.3542 37.75 19C37.75 8.64583 29.3542 0.25 19 0.25H16.9167ZM31.5 19C31.5 17.8542 30.5625 16.9167 29.4167 16.9167C28.2708 16.9167 27.3333 17.8542 27.3333 19C27.3333 20.1458 28.2708 21.0833 29.4167 21.0833C30.5625 21.0833 31.5 20.1458 31.5 19ZM6.5 19C6.5 20.1458 7.4375 21.0833 8.58333 21.0833C9.72917 21.0833 10.6667 20.1458 10.6667 19C10.6667 17.8542 9.72917 16.9167 8.58333 16.9167C7.4375 16.9167 6.5 17.8542 6.5 19Z" fill="white"/>
</svg>
