<svg width="80" height="80" viewBox="0 0 80 80" fill="none" xmlns="http://www.w3.org/2000/svg">
    <rect width="80" height="80" rx="20" fill="#202020"/>
    <g clip-path="url(#clip0_311_488)">
        <path d="M40.5076 49.9492C40.5693 49.4867 40.6001 49.0088 40.6001 48.5C40.6001 48.0067 40.5693 47.5133 40.4922 47.0508L43.6218 44.615C43.8993 44.3992 43.9763 43.9829 43.8068 43.6746L40.8468 38.5563C40.6618 38.2171 40.2763 38.1092 39.9372 38.2171L36.2526 39.6971C35.4818 39.1113 34.6647 38.6179 33.7551 38.2479L33.2001 34.3321C33.1384 33.9621 32.8301 33.7 32.4601 33.7H26.5401C26.1701 33.7 25.8772 33.9621 25.8155 34.3321L25.2605 38.2479C24.3509 38.6179 23.5184 39.1267 22.763 39.6971L19.0784 38.2171C18.7393 38.0938 18.3538 38.2171 18.1688 38.5563L15.2243 43.6746C15.0393 43.9983 15.1009 44.3992 15.4093 44.615L18.5388 47.0508C18.4618 47.5133 18.4001 48.0221 18.4001 48.5C18.4001 48.9779 18.4309 49.4867 18.508 49.9492L15.3784 52.385C15.1009 52.6008 15.0238 53.0171 15.1934 53.3254L18.1534 58.4438C18.3384 58.7829 18.7238 58.8908 19.063 58.7829L22.7476 57.3029C23.5184 57.8888 24.3355 58.3821 25.2451 58.7521L25.8001 62.6679C25.8772 63.0379 26.1701 63.3 26.5401 63.3H32.4601C32.8301 63.3 33.1384 63.0379 33.1847 62.6679L33.7397 58.7521C34.6493 58.3821 35.4818 57.8888 36.2372 57.3029L39.9218 58.7829C40.2609 58.9063 40.6463 58.7829 40.8313 58.4438L43.7913 53.3254C43.9763 52.9863 43.8993 52.6008 43.6063 52.385L40.5076 49.9492ZM29.5001 54.05C26.4476 54.05 23.9501 51.5525 23.9501 48.5C23.9501 45.4475 26.4476 42.95 29.5001 42.95C32.5526 42.95 35.0501 45.4475 35.0501 48.5C35.0501 51.5525 32.5526 54.05 29.5001 54.05Z" fill="#D9D9D9"/>
    </g>
    <g clip-path="url(#clip1_311_488)">
        <path d="M60.5377 28.8575C60.5827 28.52 60.6053 28.1712 60.6053 27.8C60.6053 27.44 60.5827 27.08 60.5265 26.7425L62.8102 24.965C63.0127 24.8075 63.069 24.5037 62.9452 24.2787L60.7852 20.5437C60.6502 20.2962 60.369 20.2175 60.1215 20.2962L57.4327 21.3762C56.8702 20.9487 56.274 20.5887 55.6102 20.3187L55.2052 17.4612C55.1602 17.1912 54.9352 17 54.6652 17H50.3452C50.0752 17 49.8615 17.1912 49.8165 17.4612L49.4115 20.3187C48.7477 20.5887 48.1402 20.96 47.589 21.3762L44.9002 20.2962C44.6527 20.2062 44.3715 20.2962 44.2365 20.5437L42.0878 24.2787C41.9528 24.515 41.9978 24.8075 42.2228 24.965L44.5065 26.7425C44.4502 27.08 44.4053 27.4512 44.4053 27.8C44.4053 28.1487 44.4278 28.52 44.484 28.8575L42.2003 30.635C41.9978 30.7925 41.9415 31.0962 42.0653 31.3212L44.2252 35.0562C44.3602 35.3037 44.6415 35.3825 44.889 35.3037L47.5777 34.2237C48.1402 34.6512 48.7365 35.0112 49.4002 35.2812L49.8052 38.1387C49.8615 38.4087 50.0752 38.6 50.3452 38.6H54.6652C54.9352 38.6 55.1602 38.4087 55.194 38.1387L55.599 35.2812C56.2627 35.0112 56.8702 34.6512 57.4215 34.2237L60.1102 35.3037C60.3577 35.3937 60.639 35.3037 60.774 35.0562L62.934 31.3212C63.069 31.0737 63.0127 30.7925 62.799 30.635L60.5377 28.8575ZM52.5052 31.85C50.2777 31.85 48.4552 30.0275 48.4552 27.8C48.4552 25.5725 50.2777 23.75 52.5052 23.75C54.7327 23.75 56.5552 25.5725 56.5552 27.8C56.5552 30.0275 54.7327 31.85 52.5052 31.85Z" fill="#9292FF"/>
    </g>
    <defs>
        <clipPath id="clip0_311_488">
            <rect width="37" height="37" fill="white" transform="translate(11 30)"/>
        </clipPath>
        <clipPath id="clip1_311_488">
            <rect width="27" height="27" fill="white" transform="translate(39 14)"/>
        </clipPath>
    </defs>
</svg>
